<?xml version="1.0" standalone="no"?>
<!DOCTYPE svg PUBLIC "-//W3C//DTD SVG 20010904//EN"
 "http://www.w3.org/TR/2001/REC-SVG-20010904/DTD/svg10.dtd">
	<svg  version="1.0" xmlns="http://www.w3.org/2000/svg"
	 height="50%" viewBox="0 0 279.000000 287.000000"
	preserveAspectRatio="xMidYMid meet">
    <style type="text/css">
		.st0{fill:none;stroke:black;stroke-width:20;stroke-linecap:round;
			stroke-miterlimit:10;}
		.st1{fill:none;stroke:black;stroke-width:20;stroke-linecap:round;
			stroke-linejoin:round;
			stroke-miterlimit:10;}
	  </style>
   <g transform="translate(0.000000,287.000000) scale(0.100000,-0.100000)"
   >
   <path class="st1" d="M1285 2811 c-44 -21 -152 -73 -240 -116 -88 -42 -252 -121 -365 -175
   -245 -117 -509 -243 -567 -272 -24 -12 -43 -24 -43 -28 0 -4 55 -33 123 -65
   67 -32 185 -89 262 -126 77 -36 203 -97 280 -134 77 -37 194 -93 260 -125 66
   -32 176 -84 245 -118 69 -33 177 -84 240 -115 63 -30 187 -89 275 -131 88 -43
   213 -103 278 -133 93 -45 115 -59 105 -69 -7 -6 -64 -35 -125 -64 l-113 -53
   -112 53 c-62 30 -196 94 -298 143 -102 49 -237 114 -300 144 -63 31 -185 89
   -270 131 -85 41 -192 92 -237 113 -46 21 -83 41 -83 44 0 3 34 22 75 42 41 19
   75 38 75 42 0 10 -232 121 -252 121 -10 0 -112 -46 -229 -102 l-211 -102 104
   -51 c57 -27 166 -80 243 -117 77 -37 221 -106 320 -154 99 -47 221 -106 270
   -129 50 -23 151 -72 225 -108 188 -90 375 -180 505 -242 339 -163 425 -205
   425 -210 0 -3 -42 -25 -92 -49 -89 -42 -158 -75 -523 -250 l-159 -77 -231 110
   c-208 99 -374 179 -702 337 -62 30 -116 54 -120 54 -15 1 -252 -115 -252 -123
   -1 -7 83 -49 414 -207 55 -26 168 -80 250 -120 144 -69 266 -128 515 -248 63
   -30 120 -55 125 -55 6 0 82 35 170 78 88 42 196 94 240 115 44 21 148 70 230
   110 83 40 195 94 250 120 342 163 415 199 415 205 0 5 -365 186 -457 226 -24
   10 -43 22 -43 26 0 5 33 24 73 43 39 18 155 74 256 122 l184 89 -209 100
   c-115 56 -245 118 -289 139 -44 21 -147 70 -230 110 -82 40 -190 91 -240 115
   -49 24 -175 84 -280 135 -104 51 -218 105 -252 121 -35 15 -63 32 -63 37 0 7
   230 122 245 122 3 0 58 -25 123 -56 64 -31 178 -86 252 -121 74 -36 176 -84
   225 -108 50 -24 171 -82 269 -129 l180 -87 45 20 c25 11 86 39 134 63 l89 44
   -139 66 c-275 132 -639 308 -893 431 -91 43 -192 92 -226 107 l-60 27 -75 -35
   c-41 -19 -157 -75 -258 -124 -101 -48 -187 -88 -191 -88 -14 0 -250 114 -250
   120 0 4 55 33 123 65 67 32 201 96 297 143 270 130 344 165 355 165 6 0 64
   -26 130 -58 66 -32 174 -84 240 -115 256 -122 356 -170 510 -245 88 -43 165
   -78 170 -78 15 0 255 116 255 123 0 4 -64 37 -142 75 -79 38 -226 109 -328
   158 -102 49 -221 106 -265 127 -44 21 -152 72 -240 115 -260 125 -324 155
   -332 154 -5 0 -44 -17 -88 -38z"/>
   <path class="st0" d="M196 1277 c-69 -33 -126 -63 -126 -67 0 -4 51 -31 113 -60 61 -30
   191 -92 287 -138 231 -111 383 -184 505 -242 55 -26 166 -80 248 -119 81 -39
   149 -71 152 -71 2 0 84 39 182 86 98 47 193 92 211 100 38 17 41 31 10 43 -13
   5 -70 31 -126 59 l-104 50 -81 -40 c-45 -23 -86 -41 -92 -41 -5 0 -77 33 -160
   73 -82 40 -195 94 -250 120 -55 26 -167 80 -250 120 -82 40 -205 99 -272 130
   l-121 58 -126 -61z"/>
   </g>
   </svg>
