<?xml version="1.0" encoding="utf-8"?>
<!-- Generator: Adobe Illustrator 22.0.1, SVG Export Plug-In . SVG Version: 6.00 Build 0)  -->
<svg version="1.1" id="Layer_1" xmlns="http://www.w3.org/2000/svg" xmlns:xlink="http://www.w3.org/1999/xlink" x="0px" y="0px"
	 viewBox="0 0 82.5 83.1" style="enable-background:new 0 0 82.5 83.1;" xml:space="preserve">
<style type="text/css">
	.st0{display:none;fill:none;stroke:#75AE9D;stroke-miterlimit:10;}
	.st1{fill:none;stroke:#75AE9D;stroke-miterlimit:10;}
	.st2{display:none;fill:none;stroke:#B9B040;stroke-miterlimit:10;}
	.st3{fill:none;stroke:#4B4B4B;stroke-width:5;stroke-miterlimit:10;stroke-dasharray:34,157;}
	.st4{display:none;fill:none;stroke:#4B4B4B;stroke-width:5;stroke-miterlimit:10;stroke-dasharray:34,157;}
	.st5{fill:#4B4B4B;}
	.st6{fill:#FFFFFF;}
	.st7{clip-path:url(#SVGID_2_);fill:none;stroke:#75AE9D;stroke-miterlimit:10;}
	.st8{clip-path:url(#SVGID_4_);}
	.st9{clip-path:url(#SVGID_6_);fill:none;stroke:#4B4B4B;stroke-width:12;stroke-miterlimit:10;stroke-dasharray:52,150;}
</style>
<circle class="st0" cx="39" cy="42.7" r="22.5"/>
<ellipse id="green_bg_stroke" class="st1" cx="39.6" cy="42.5" rx="22.5" ry="22.5"/>
<ellipse id="green_bg_stroke_1_" class="st2" cx="39.6" cy="42.5" rx="22.5" ry="22.5"/>
<path id="c_cresent" class="st3" d="M55,59c-8.8,8.2-22.3,8-30.9-0.1"/>
<path id="m_cresent" class="st3" d="M56,27.2c8.2,8.8,8,22.3-0.1,30.9"/>
<path class="st4" d="M74.2,26.1"/>
<path id="s_cresent" class="st3" d="M24.2,26.1L24.2,26.1c8.8-8.2,22.3-8,30.9,0.1"/>
<path id="d_cresent" class="st3" d="M23.1,58C15,49.4,14.8,35.9,23,27.2"/>
<path class="st3" d="M-26.8,57.9"/>
<g id="s">
	<path class="st5" d="M34.5,11.6l1.3-1.7c0.7,0.5,1.7,0.8,2.9,0.8c1.3,0,2-0.5,2-1.5c0-0.6-0.8-1.2-2.3-1.7C36.1,6.7,35,5.4,35,3.6
		c0-1.1,0.4-1.9,1.2-2.6c0.7-0.6,1.8-0.9,3-0.9c1.4,0,2.8,0.4,4,1.3C43,1.7,42.5,2.3,42,3.1c-1.1-0.5-2.1-0.7-2.9-0.7
		c-1,0-1.5,0.4-1.5,1.1c0,0.3,0.1,0.6,0.4,0.8c0.3,0.2,0.8,0.5,1.6,0.8c1.4,0.5,2.4,1.1,3,1.8s0.9,1.4,0.9,2.3
		c0,1.3-0.5,2.4-1.5,3.1c-0.8,0.6-1.8,0.9-3,0.9C37.6,13.1,36.1,12.6,34.5,11.6z"/>
</g>
<g id="c">
	<path class="st5" d="M44.3,71.7l-1.1,1.8c-1-0.7-1.8-1.1-2.6-1.1c-1,0-1.8,0.4-2.3,1.2s-0.9,1.8-0.9,3.1c0,1,0.3,1.9,0.9,2.7
		c0.6,0.8,1.5,1.3,2.6,1.3c0.7,0,1.5-0.3,2.5-0.9l1.1,1.7c-1.1,1.1-2.4,1.7-4,1.7c-2.2,0-3.8-0.8-4.9-2.4c-0.7-1.1-1.1-2.5-1.1-4
		c0-2.1,0.5-3.7,1.6-4.9c1-1.2,2.5-1.8,4.4-1.8C41.7,70,43,70.6,44.3,71.7z"/>
</g>
<g id="m">
	<path class="st5" d="M82.5,34.3V47h-2.8V36.7c-0.7,3-1.7,6.4-2.9,10.3h-2.4c-1.5-4.6-2.5-8-2.9-10.1V47h-2.8V34.3h4
		c1.1,3.2,2.1,6.3,2.9,9.4c0.8-2.9,1.7-6,2.8-9.4L82.5,34.3z"/>
</g>
<g id="d">
	<path class="st5" d="M0,46.9V34.3c0.2-0.1,0.7-0.1,1.5-0.2c0.8,0,1.5-0.1,2-0.1c2.3,0,4,0.7,5.3,2c1,1.1,1.5,2.6,1.5,4.4
		c0,2.3-0.7,4-2,5.1c-1.2,1-2.9,1.6-5.1,1.6C2,47.2,0.9,47.1,0,46.9z M2.8,36.4v8.5C3,44.9,3.3,45,3.6,45h0.1l0,0
		c2.5,0,3.7-1.5,3.7-4.4c0-1.5-0.4-2.6-1.2-3.3c-0.7-0.6-1.5-0.9-2.5-0.9H3.5C3.3,36.3,3.1,36.3,2.8,36.4z"/>
</g>
<rect x="3534.2" y="-2319.6" class="st6" width="1440" height="6165"/>
<g>
	<g>
		<defs>
			<rect id="SVGID_1_" x="3534.2" y="-2319.6" width="1440" height="6165"/>
		</defs>
		<clipPath id="SVGID_2_">
			<use xlink:href="#SVGID_1_"  style="overflow:visible;"/>
		</clipPath>
		<circle class="st7" cx="3669.7" cy="-1422.1" r="22.5"/>
	</g>
</g>
<g>
	<g>
		<defs>
			<circle id="SVGID_3_" cx="3669.3" cy="-1422.6" r="25"/>
		</defs>
		<clipPath id="SVGID_4_">
			<use xlink:href="#SVGID_3_"  style="overflow:visible;"/>
		</clipPath>
		<g class="st8">
			<g>
				<defs>
					<rect id="SVGID_5_" x="3534.2" y="-2319.6" width="1440" height="6165"/>
				</defs>
				<clipPath id="SVGID_6_">
					<use xlink:href="#SVGID_5_"  style="overflow:visible;"/>
				</clipPath>
				<circle class="st9" cx="3669.2" cy="-1422.6" r="25"/>
			</g>
		</g>
	</g>
</g>
</svg>
